<?xml version="1.0" encoding="UTF-8"?>
<svg width="2183px" height="638px" viewBox="0 0 2183 638" version="1.1" xmlns="http://www.w3.org/2000/svg" xmlns:xlink="http://www.w3.org/1999/xlink">
    <title>Group 27</title>
    <defs>
        <polygon id="path-1" points="0 0.742 750.78117 0.742 750.78117 451.8808 0 451.8808"></polygon>
        <polygon id="path-3" points="0 637.258 2182.205 637.258 2182.205 1 0 1"></polygon>
    </defs>
    <g id="🌟-Transfer---Other-Bank---Online----Unhappy-Copy" stroke="none" stroke-width="1" fill="none" fill-rule="evenodd">
        <g id="Group-27">
            <path d="M1025.7681,115.343 C1028.2151,112.122 1029.4351,97.097 1029.4351,93.581 L1029.4351,20.738 C1029.0391,16.448 1027.4681,13.223 1024.7381,11.083 C1022.0081,8.932 1018.8661,7.863 1015.3451,7.863 L699.6311,7.863 C695.7091,7.863 692.4331,9.033 689.7921,11.367 C687.1621,13.707 685.8311,16.839 685.8311,20.738 L685.8311,21.551 C685.8311,26.242 688.0201,30.638 691.7201,33.513 C709.8151,47.574 726.6291,62.516 745.0471,88.974 C762.7911,114.44 763.6941,120.173 769.1601,120.173 L800.5641,120.173 L800.5641,429.458 C800.5641,433.436 802.2581,437.308 805.2721,439.915 C808.1131,442.372 811.1221,443.592 814.3191,443.592 L900.3721,443.592 C904.4621,443.592 907.7761,442.177 910.3171,439.341 C912.8401,436.5 914.1171,433.313 914.1171,429.792 L914.1171,120.173 L1015.3451,120.173 C1019.8571,120.173 1023.3171,118.563 1025.7681,115.343" id="Fill-1" fill="#E72635"></path>
            <path d="M1164.7368,324.7023 C1111.4868,324.7023 1068.3268,281.5363 1068.3268,228.2933 C1068.3268,175.0433 1111.4868,131.8833 1164.7368,131.8833 C1217.9918,131.8833 1261.1458,175.0433 1261.1458,228.2933 C1261.1458,281.5363 1217.9918,324.7023 1164.7368,324.7023 M1381.1328,169.0153 C1375.7578,149.9453 1368.2188,132.0453 1358.5308,115.3203 C1348.8308,98.6013 1337.1368,83.3973 1323.4488,69.6923 C1309.7328,55.9983 1294.5628,44.3153 1277.9378,34.6383 C1261.2908,24.9503 1243.3848,17.4113 1224.1868,12.0413 C1205.0098,6.6653 1185.1488,3.9683 1164.5908,3.9683 C1143.8398,3.9683 1123.9278,6.6653 1104.8348,12.0413 C1091.1018,15.9133 1078.0428,20.9553 1065.5808,27.0563 C1063.0958,28.7663 1059.8028,31.5183 1056.7838,35.4623 C1053.1848,40.1593 1051.3348,45.9863 1051.3348,51.9033 L1051.3348,109.7713 C1051.3348,124.9083 1039.0668,137.1763 1023.9358,137.1763 L978.3188,137.1763 C966.5908,137.1763 956.1908,144.6363 952.3578,155.7003 C950.8368,160.0623 949.4488,164.5143 948.1898,169.0153 C942.9078,188.0973 940.2678,208.0023 940.2678,228.7383 C940.2678,249.4633 942.9078,269.3753 948.1898,288.4453 C953.4818,307.5153 961.0148,325.3153 970.8038,341.8563 C980.5918,358.3863 992.2918,373.4333 1005.8958,387.0333 C1019.4958,400.6323 1034.6158,412.3203 1051.2618,422.0983 C1067.8928,431.8813 1085.7648,439.4193 1104.8348,444.6783 C1123.9278,449.9763 1143.8398,452.6173 1164.5908,452.6173 C1185.1488,452.6173 1205.0098,449.9763 1224.1868,444.6783 C1243.3848,439.4193 1261.2908,431.8813 1277.9378,422.0983 C1294.5628,412.3203 1309.7328,400.6323 1323.4488,387.0333 C1337.1368,373.4333 1348.8308,358.3863 1358.5308,341.8563 C1368.2188,325.3153 1375.7578,307.5153 1381.1328,288.4453 C1386.5208,269.3753 1389.2158,249.4633 1389.2158,228.7383 C1389.2158,208.0023 1386.5208,188.0973 1381.1328,169.0153" id="Fill-3" fill="#E72635"></path>
            <g id="Group-7" transform="translate(0.000000, 0.258000)">
                <mask id="mask-2" fill="white">
                    <use xlink:href="#path-1"></use>
                </mask>
                <g id="Clip-6"></g>
                <path d="M221.332,321.8818 C168.082,321.8818 124.923,278.7158 124.923,225.4728 C124.923,172.2228 168.082,129.0628 221.332,129.0628 C274.576,129.0628 317.742,172.2228 317.742,225.4728 C317.742,278.7158 274.576,321.8818 221.332,321.8818 M739.304,302.3608 L646.236,271.2118 C639.083,268.8158 631.055,271.4008 626.977,277.7578 C608.726,306.2548 575.811,324.4498 538.812,321.4968 C514.544,319.5638 492.51,308.1938 476.588,290.9848 C465.033,278.5098 456.677,262.9778 453.116,245.6678 C451.763,239.0888 451.166,232.6258 451.166,226.3028 L451.133,226.3028 C451.133,165.0528 426.681,109.5358 387.036,68.8878 C386.413,68.2358 385.794,67.5628 385.159,66.8998 C344.333,26.0348 287.897,0.7418 225.578,0.7418 C133.357,0.7418 54.113,56.1128 19.142,135.3858 C6.88,163.2088 0,193.9448 0,226.3078 C0,331.2138 71.618,419.3718 168.618,444.6098 C170.038,444.9778 171.498,445.2448 172.941,445.5788 L172.941,445.5898 C189.828,449.6348 207.432,451.8748 225.566,451.8748 C281.986,451.8748 333.542,431.0998 373.098,396.8598 C373.098,396.8598 384.552,386.2908 386.201,384.6968 C427.099,426.1138 483.819,451.8808 546.624,451.8808 C571.755,451.8808 595.867,447.6398 618.437,440.0408 C675.647,420.8158 722.646,379.3818 749.019,325.8648 C753.543,316.6788 749.019,305.6028 739.304,302.3608" id="Fill-5" fill="#E72635" mask="url(#mask-2)"></path>
            </g>
            <path d="M546.6289,131.07 C576.1399,131.07 602.4689,144.486 619.9799,165.528 C624.7369,171.244 632.8209,172.954 639.6899,170.069 L729.8379,132.129 C739.7269,127.967 743.4599,115.933 737.7539,106.841 C697.8759,43.291 627.2109,1.01 546.6289,1.01 C489.6519,1.01 437.6449,22.175 397.9499,57.035 C430.6699,90.294 453.8519,132.947 463.0489,180.537 C479.3119,151.065 510.5939,131.07 546.6289,131.07" id="Fill-8" fill="#E72635"></path>
            <path d="M1601.0923,251.6057 L1580.2113,251.6057 C1528.0103,251.6057 1489.5073,288.1467 1489.5073,337.0847 C1489.5073,396.4647 1534.8573,422.5627 1568.4613,422.5627 L1601.0923,422.5627 L1601.0923,451.2747 L1568.4613,451.2747 C1504.8463,451.2747 1457.5373,402.3367 1457.5373,337.0847 C1457.5373,281.6217 1502.8873,222.8937 1576.9473,222.8937 L1601.0923,222.8937 L1601.0923,251.6057 Z" id="Fill-10" fill="#790008"></path>
            <mask id="mask-4" fill="white">
                <use xlink:href="#path-3"></use>
            </mask>
            <g id="Clip-13"></g>
            <polygon id="Fill-12" fill="#790008" mask="url(#mask-4)" points="1631.125 451.275 1659.837 451.275 1659.837 222.894 1631.125 222.894"></polygon>
            <path d="M1712.693,451.275 L1741.399,451.275 L1741.399,294.671 L1712.693,294.671 L1712.693,451.275 Z M1727.045,242.47 C1738.141,242.47 1744.338,250.953 1744.338,259.762 C1744.338,268.571 1738.141,277.054 1727.045,277.054 C1715.957,277.054 1709.753,268.571 1709.753,259.762 C1709.753,250.953 1715.957,242.47 1727.045,242.47 L1727.045,242.47 Z" id="Fill-14" fill="#790008" mask="url(#mask-4)"></path>
            <path d="M1892.4663,322.0759 L1870.2803,322.0759 C1843.2033,322.0759 1816.4503,339.6959 1816.4503,372.9729 C1816.4503,406.2499 1843.2033,423.8699 1870.2803,423.8699 L1892.4663,423.8699 L1892.4663,451.2749 L1865.0643,451.2749 C1828.5203,451.2749 1786.4343,423.2179 1786.4343,372.9729 C1786.4343,322.7279 1828.5203,294.6709 1865.0643,294.6709 L1892.4663,294.6709 L1892.4663,322.0759 Z" id="Fill-15" fill="#790008" mask="url(#mask-4)"></path>
            <path d="M1916.2964,451.2746 L1916.2964,222.8936 L1945.0024,222.8936 L1945.0024,352.7446 L1957.0774,352.7446 C1969.1474,352.7446 1976.9784,348.1766 1981.2214,340.9996 L2008.2994,294.6706 L2040.9244,294.6706 L2020.3684,329.9076 C2014.1714,340.6726 2004.7104,356.3326 1995.9004,358.6166 L1995.9004,359.2696 C2019.0644,363.8366 2031.7884,377.5406 2031.7884,405.2736 L2031.7884,451.2746 L2003.0754,451.2746 L2003.0754,408.5336 C2003.0754,388.9606 1992.6364,380.1496 1977.6274,380.1496 L1945.0024,380.1496 L1945.0024,451.2746 L1916.2964,451.2746 Z" id="Fill-16" fill="#790008" mask="url(#mask-4)"></path>
            <path d="M2053.3345,423.8698 L2133.5925,423.8698 C2146.9715,423.8698 2152.1885,418.6498 2152.1885,408.8618 C2152.1885,380.1498 2053.3345,391.2418 2053.3345,337.0838 C2053.3345,309.3518 2072.5805,294.6708 2106.8395,294.6708 L2174.3735,294.6708 L2174.3735,322.0758 L2101.9465,322.0758 C2087.9185,322.0758 2083.6755,325.9918 2083.3505,335.7798 C2083.0205,362.8598 2182.2055,351.4398 2182.2055,407.5578 C2182.2055,437.2458 2161.3245,451.2748 2133.5925,451.2748 L2053.3345,451.2748 L2053.3345,423.8698 Z" id="Fill-17" fill="#790008" mask="url(#mask-4)"></path>
            <text id="BY" mask="url(#mask-4)" font-family="Helvetica" font-size="100.2754" font-weight="normal" fill="#790008">
                <tspan x="459.3782" y="585.8002">BY</tspan>
            </text>
            <polygon id="Fill-18" fill="#790008" mask="url(#mask-4)" points="623.401 616.713 740.908 616.713 740.908 499.242 623.401 499.242"></polygon>
            <polygon id="Fill-19" fill="#FFFFFF" mask="url(#mask-4)" points="701.7544 521.4128 639.2904 521.4128 666.8954 557.9698 729.3624 557.9698"></polygon>
            <polygon id="Fill-20" fill="#ED1C24" mask="url(#mask-4)" points="729.3623 557.9694 666.8953 557.9694 639.2903 594.5194 701.7543 594.5194"></polygon>
            <path d="M828.1772,578.3361 C823.7222,581.9091 818.3542,583.7461 812.6562,583.7461 C798.8202,583.7461 788.0832,572.7781 788.0832,558.7071 C788.0832,544.6511 798.8202,533.6571 812.6562,533.6571 C818.3542,533.6571 823.7222,535.5331 828.1772,539.0611 L828.3922,539.2471 L839.0442,528.5921 L838.7832,528.3841 C831.5352,522.0761 822.2382,518.6001 812.6562,518.6001 C790.2992,518.6001 772.1092,536.6071 772.1092,558.7071 C772.1092,580.8061 790.2992,598.8001 812.6562,598.8001 C822.2382,598.8001 831.5352,595.3221 838.7832,589.0201 L839.0442,588.8011 L828.3922,578.1491 L828.1772,578.3361 Z M853.5172,596.5521 L868.8412,596.5521 L868.8412,520.8451 L853.5172,520.8451 L853.5172,596.5521 Z M929.2012,569.2211 C928.6722,568.2161 902.4972,520.6861 902.4972,520.6861 L887.5702,520.6861 L887.5702,596.4181 L902.8402,596.4181 L902.8402,551.1681 C903.9622,553.1661 929.2012,597.0021 929.2012,597.0021 C929.2012,597.0021 954.3842,553.1821 955.5332,551.1981 L955.5332,596.4181 L970.7932,596.4181 L970.7932,520.6861 L955.8562,520.6861 C955.8562,520.6861 929.7622,568.2161 929.2012,569.2211 L929.2012,569.2211 Z M1018.9832,582.8621 L1004.0202,582.8621 L1004.0202,565.0051 L1018.9832,565.0051 C1025.9602,565.0051 1028.4402,569.6101 1028.4402,573.8881 C1028.4402,578.2281 1025.9602,582.8621 1018.9832,582.8621 L1018.9832,582.8621 Z M1004.0202,534.5771 L1018.0302,534.5771 C1023.8942,534.5771 1027.4092,537.6901 1027.4092,542.9061 C1027.4092,548.1071 1023.8942,551.2241 1018.0302,551.2241 L1004.0202,551.2241 L1004.0202,534.5771 Z M1033.8412,557.7341 C1037.1702,555.8901 1042.6982,550.7311 1042.6982,542.2501 C1042.6982,529.0491 1033.6972,520.8451 1019.1952,520.8451 L988.7082,520.8451 L988.7082,596.5521 L1020.4352,596.5521 C1034.8392,596.5521 1043.7552,588.1751 1043.7552,574.6261 C1043.7552,564.4601 1037.7542,559.7381 1033.8412,557.7341 L1033.8412,557.7341 Z" id="Fill-21" fill="#790008" mask="url(#mask-4)"></path>
            <path d="M1204.6782,521.2434 L1215.6532,521.2434 L1241.9982,596.3044 L1232.8762,596.3044 L1225.7002,576.0874 L1194.1372,576.0874 L1187.2782,596.7804 L1177.0082,596.7804 L1204.6782,521.2434 Z M1197.2862,567.2694 L1222.5682,567.2694 L1210.1342,530.6944 L1209.9292,530.6944 L1197.2862,567.2694 Z" id="Fill-22" fill="#790008" mask="url(#mask-4)"></path>
            <path d="M1357.3315,521.2434 L1368.3495,521.2434 L1394.6385,596.3044 L1385.4945,596.3044 L1378.3605,576.0874 L1346.7945,576.0874 L1339.9255,596.7804 L1329.6875,596.7804 L1357.3315,521.2434 Z M1349.9365,567.2694 L1375.2255,567.2694 L1362.7595,530.6944 L1362.5795,530.6944 L1349.9365,567.2694 Z" id="Fill-23" fill="#790008" mask="url(#mask-4)"></path>
            <path d="M1315.1304,531.0202 C1315.1304,531.0202 1286.6734,508.4372 1261.1604,532.5022 C1261.1604,532.5022 1249.6994,542.4682 1250.3294,563.4062 C1250.3294,563.4062 1251.6574,597.7822 1289.6164,598.2622 C1289.6164,598.2622 1305.8134,597.2802 1316.6344,590.9062 L1316.6344,555.0782 L1291.5984,555.0782 L1291.5984,561.9242 L1309.2724,561.9242 L1309.2724,585.4992 C1309.2724,585.4992 1283.2404,597.7822 1268.5064,583.0382 C1268.5064,583.0382 1256.7514,576.6622 1259.1704,554.5952 C1259.1704,554.5952 1264.1014,527.7472 1291.2724,529.3852 C1291.2724,529.3852 1305.9954,531.1802 1309.9354,537.5542 L1315.1304,531.0202 Z" id="Fill-24" fill="#790008" mask="url(#mask-4)"></path>
            <polygon id="Fill-25" fill="#790008" mask="url(#mask-4)" points="1156.602 596.304 1164.46 596.304 1164.46 520.708 1156.602 520.708"></polygon>
            <polygon id="Fill-26" fill="#790008" mask="url(#mask-4)" points="1128.6289 520.7082 1128.6289 582.5492 1083.4509 520.7082 1075.6019 520.7082 1075.6019 596.3042 1083.4509 596.3042 1083.4509 534.2222 1128.6289 596.3042 1136.4869 596.3042 1136.4869 520.7082"></polygon>
        </g>
    </g>
</svg>